<?xml version="1.0" encoding="utf-8"?>
<!-- Generator: Adobe Illustrator 19.2.1, SVG Export Plug-In . SVG Version: 6.00 Build 0)  -->
<svg version="1.1" id="Layer_1" xmlns="http://www.w3.org/2000/svg" xmlns:xlink="http://www.w3.org/1999/xlink" x="0px" y="0px"
	 viewBox="0 0 124.4 14.7" style="enable-background:new 0 0 124.4 14.7;" xml:space="preserve">
<style type="text/css">
	.st0{fill:#333333;}
</style>
<title>emailid</title>
<g>
	<path class="st0" d="M1.4,4.8c0.3-0.4,0.7-0.7,1.1-0.9C3,3.7,3.5,3.5,4,3.5c0.4,0,0.8,0.1,1.2,0.2C5.5,3.9,5.8,4.1,6,4.4
		c0.2,0.3,0.4,0.6,0.5,1c0.1,0.4,0.2,0.8,0.2,1.3v5.2H5.3V6.6c0-0.5-0.1-1-0.4-1.4C4.6,4.8,4.1,4.7,3.6,4.7c-0.4,0-0.8,0.1-1.2,0.3
		c-0.4,0.2-0.7,0.5-1,0.8v6H0V-0.1h1.4V4.8z"/>
	<path class="st0" d="M15.5,10.6c-0.2,0.2-0.4,0.4-0.6,0.6c-0.2,0.2-0.5,0.3-0.8,0.4c-0.3,0.1-0.6,0.2-0.9,0.2
		c-0.3,0.1-0.6,0.1-0.9,0.1c-0.5,0-1.1-0.1-1.6-0.3c-0.5-0.2-0.9-0.5-1.2-0.8c-0.4-0.4-0.6-0.9-0.8-1.4C8.5,8.8,8.4,8.2,8.5,7.6
		c0-0.6,0.1-1.1,0.3-1.6C8.9,5.5,9.1,5,9.5,4.7c0.3-0.4,0.7-0.7,1.2-0.8c0.5-0.2,1-0.3,1.6-0.3c0.5,0,0.9,0.1,1.4,0.2
		c0.4,0.2,0.8,0.4,1.1,0.7c0.3,0.3,0.6,0.7,0.7,1.1c0.2,0.5,0.3,1,0.3,1.5c0,0.2,0,0.3-0.1,0.4c-0.1,0.1-0.2,0.1-0.3,0.1H9.9
		c0,0.5,0.1,0.9,0.2,1.3c0.1,0.3,0.3,0.7,0.5,0.9c0.2,0.3,0.5,0.4,0.8,0.6c0.3,0.1,0.7,0.2,1,0.2c0.3,0,0.6,0,0.9-0.1
		c0.2-0.1,0.5-0.1,0.7-0.2c0.2-0.1,0.3-0.2,0.5-0.3c0.1-0.1,0.2-0.1,0.4-0.2c0.1,0,0.2,0,0.3,0.1L15.5,10.6z M14.4,6.8
		c0-0.3,0-0.6-0.1-0.9c-0.1-0.3-0.2-0.5-0.4-0.7c-0.2-0.2-0.4-0.4-0.6-0.5c-0.3-0.1-0.6-0.2-0.9-0.2c-0.6,0-1.2,0.2-1.6,0.6
		c-0.4,0.4-0.7,1-0.7,1.6H14.4z"/>
	<path class="st0" d="M18.9-0.1v11.8h-1.4V-0.1H18.9L18.9-0.1z"/>
	<path class="st0" d="M22.6-0.1v11.8h-1.4V-0.1H22.6z"/>
	<path class="st0" d="M28.3,3.5c0.5,0,1.1,0.1,1.6,0.3c0.5,0.2,0.9,0.5,1.2,0.8c0.3,0.4,0.6,0.8,0.8,1.3c0.2,0.6,0.3,1.1,0.3,1.7
		c0,0.6-0.1,1.2-0.3,1.7c-0.2,0.5-0.4,0.9-0.8,1.3c-0.3,0.4-0.8,0.7-1.2,0.8c-0.5,0.2-1.1,0.3-1.6,0.3c-0.6,0-1.1-0.1-1.6-0.3
		c-0.5-0.2-0.9-0.5-1.2-0.8c-0.3-0.4-0.6-0.8-0.8-1.3c-0.2-0.6-0.3-1.1-0.3-1.7c0-0.6,0.1-1.2,0.3-1.7c0.2-0.5,0.4-0.9,0.8-1.3
		c0.3-0.4,0.8-0.7,1.2-0.8C27.2,3.6,27.8,3.5,28.3,3.5z M28.3,10.8c0.7,0,1.4-0.3,1.8-0.8c0.4-0.7,0.6-1.4,0.6-2.2
		c0-0.8-0.2-1.6-0.6-2.3c-0.4-0.6-1.1-0.9-1.8-0.8c-0.4,0-0.7,0.1-1.1,0.2C27,5,26.7,5.2,26.5,5.5c-0.2,0.3-0.4,0.6-0.5,1
		c-0.1,0.4-0.2,0.9-0.1,1.3c0,0.8,0.2,1.6,0.6,2.2C27,10.5,27.6,10.8,28.3,10.8z"/>
	<path class="st0" d="M41.8,7.4c-0.1,0.3-0.1,0.7-0.2,1c0,0.2,0,0.4,0.1,0.6c0.1,0.1,0.2,0.2,0.3,0.3c0.1,0.1,0.3,0.1,0.5,0.1
		c0.3,0,0.5-0.1,0.7-0.2c0.2-0.2,0.5-0.4,0.6-0.6c0.2-0.3,0.3-0.6,0.4-1c0.1-0.4,0.2-0.8,0.2-1.3c0-0.7-0.1-1.3-0.3-1.9
		c-0.2-0.5-0.6-1-1-1.4c-0.4-0.4-0.9-0.7-1.5-0.8c-0.6-0.2-1.2-0.3-1.8-0.3c-0.7,0-1.4,0.1-2,0.4c-0.6,0.3-1.2,0.6-1.6,1.1
		c-0.5,0.5-0.8,1.1-1.1,1.7c-0.3,0.7-0.4,1.4-0.4,2.1c0,0.8,0.1,1.6,0.4,2.4c0.3,0.7,0.7,1.2,1.2,1.7c0.5,0.5,1.1,0.8,1.7,1
		c0.7,0.2,1.4,0.4,2.1,0.4c0.7,0,1.4-0.1,2.2-0.3c0.6-0.1,1.1-0.3,1.6-0.6c0.1-0.1,0.2-0.1,0.3-0.1c0.1,0,0.2,0.1,0.2,0.2l0.2,0.5
		c-0.6,0.4-1.3,0.7-2,0.9c-0.8,0.2-1.6,0.3-2.5,0.3c-0.9,0-1.8-0.1-2.6-0.4c-0.8-0.3-1.5-0.7-2-1.3c-0.6-0.6-1.1-1.2-1.4-2
		c-0.3-0.9-0.5-1.8-0.5-2.7c0-1.7,0.6-3.3,1.8-4.5c0.4-0.4,0.8-0.7,1.3-1c0.5-0.3,1-0.5,1.5-0.6c0.5-0.1,1.1-0.2,1.7-0.2
		c0.5,0,1,0.1,1.4,0.2c0.5,0.1,0.9,0.3,1.3,0.5c0.4,0.2,0.8,0.5,1.2,0.8c0.7,0.6,1.2,1.5,1.5,2.4c0.1,0.5,0.2,1.1,0.2,1.6
		c0,0.5-0.1,1.1-0.2,1.6c-0.1,0.5-0.4,0.9-0.7,1.3c-0.3,0.3-0.6,0.6-1,0.8c-0.4,0.2-0.8,0.3-1.3,0.3c-0.4,0-0.7-0.1-1-0.3
		c-0.3-0.2-0.5-0.6-0.5-0.9c-0.3,0.4-0.6,0.7-1,0.9c-0.4,0.2-0.8,0.3-1.2,0.3c-0.3,0-0.6,0-0.8-0.2c-0.2-0.1-0.4-0.3-0.6-0.5
		c-0.2-0.2-0.3-0.5-0.4-0.7c-0.1-0.3-0.1-0.6-0.1-0.9c0-0.5,0.1-0.9,0.2-1.4c0.2-0.5,0.4-0.9,0.8-1.3c0.4-0.4,0.8-0.7,1.3-0.9
		c0.6-0.2,1.2-0.4,1.8-0.3c0.3,0,0.6,0,0.9,0.1c0.3,0.1,0.5,0.1,0.8,0.2L41.8,7.4z M41.3,5.2c-0.2,0-0.5-0.1-0.7-0.1
		c-0.4,0-0.8,0.1-1.1,0.3c-0.3,0.2-0.6,0.4-0.9,0.7c-0.2,0.3-0.4,0.6-0.6,0.9C38,7.3,37.9,7.7,37.9,8c0,0.3,0.1,0.7,0.3,0.9
		c0.2,0.2,0.5,0.4,0.8,0.4c0.2,0,0.3,0,0.5-0.1c0.2-0.1,0.3-0.1,0.5-0.3c0.2-0.2,0.3-0.3,0.4-0.5c0.2-0.3,0.3-0.6,0.3-0.9L41.3,5.2z
		"/>
	<path class="st0" d="M54.2,4v0.6c0,0.2-0.2,0.3-0.3,0.3L53,4.9c0.2,0.4,0.3,0.8,0.3,1.2c0,0.7-0.3,1.4-0.9,1.9
		c-0.3,0.2-0.6,0.4-1,0.5c-0.4,0.1-0.8,0.2-1.2,0.2c-0.4,0-0.7,0-1.1-0.1c-0.1,0.1-0.3,0.2-0.4,0.3c-0.1,0.1-0.1,0.2-0.1,0.4
		c0,0.2,0.1,0.4,0.2,0.4c0.2,0.1,0.4,0.2,0.6,0.2c0.3,0,0.6,0.1,0.9,0.1l1,0.1c0.3,0,0.7,0.1,1,0.1c0.3,0.1,0.6,0.1,0.9,0.3
		c0.3,0.1,0.5,0.3,0.6,0.6c0.2,0.3,0.3,0.6,0.2,0.9c0,0.3-0.1,0.7-0.3,1c-0.2,0.3-0.4,0.6-0.8,0.9c-0.4,0.3-0.8,0.5-1.2,0.6
		c-0.5,0.2-1.1,0.2-1.6,0.2c-0.5,0-1-0.1-1.5-0.2c-0.4-0.1-0.8-0.3-1.1-0.5c-0.2-0.2-0.5-0.4-0.6-0.6c-0.1-0.2-0.2-0.5-0.2-0.8
		c0-0.4,0.1-0.7,0.4-1c0.3-0.3,0.6-0.5,1-0.7c-0.2-0.1-0.4-0.2-0.6-0.4c-0.2-0.3-0.3-0.7-0.2-1.1c0-0.2,0.1-0.3,0.2-0.4
		c0.1-0.1,0.2-0.2,0.4-0.3c0.1-0.1,0.3-0.2,0.5-0.3c-0.4-0.2-0.7-0.5-0.9-0.9c-0.2-0.4-0.3-0.8-0.3-1.3c0-0.4,0.1-0.7,0.2-1.1
		c0.1-0.3,0.3-0.6,0.6-0.8c0.3-0.2,0.6-0.4,1-0.5c0.7-0.2,1.5-0.2,2.2-0.1C51.5,3.7,51.8,3.8,52,4H54.2L54.2,4z M52.8,12.2
		c0-0.2-0.1-0.3-0.2-0.5c-0.1-0.1-0.3-0.2-0.5-0.3c-0.2-0.1-0.4-0.1-0.7-0.1l-0.8-0.1h-0.8c-0.3,0-0.6,0-0.8-0.1
		c-0.3,0.1-0.5,0.3-0.7,0.5c-0.2,0.2-0.3,0.5-0.3,0.7c0,0.2,0,0.4,0.1,0.5c0.1,0.2,0.3,0.3,0.4,0.4c0.2,0.1,0.5,0.2,0.7,0.3
		c0.7,0.1,1.4,0.1,2.1,0c0.3-0.1,0.5-0.2,0.8-0.3c0.2-0.1,0.4-0.3,0.5-0.5C52.7,12.6,52.8,12.4,52.8,12.2L52.8,12.2z M50.2,7.8
		c0.3,0,0.5,0,0.8-0.1c0.2-0.1,0.4-0.2,0.5-0.3c0.2-0.1,0.3-0.3,0.3-0.5C52,6.6,52,6.4,52,6.2c0-0.4-0.1-0.9-0.5-1.2
		c-0.8-0.6-1.8-0.6-2.6,0c-0.3,0.3-0.5,0.7-0.5,1.2c0,0.2,0,0.4,0.1,0.7c0.1,0.2,0.2,0.4,0.3,0.5c0.2,0.2,0.3,0.3,0.5,0.3
		C49.7,7.8,50,7.8,50.2,7.8L50.2,7.8z"/>
	<path class="st0" d="M59,3.5c0.5,0,1.1,0.1,1.6,0.3c0.5,0.2,0.9,0.5,1.2,0.8c0.3,0.4,0.6,0.8,0.8,1.3c0.2,0.6,0.3,1.1,0.3,1.7
		c0,0.6-0.1,1.2-0.3,1.7c-0.2,0.5-0.4,0.9-0.8,1.3c-0.3,0.4-0.8,0.7-1.2,0.8c-0.5,0.2-1.1,0.3-1.6,0.3c-0.6,0-1.1-0.1-1.6-0.3
		c-0.5-0.2-0.9-0.5-1.2-0.8c-0.3-0.4-0.6-0.8-0.8-1.3c-0.2-0.6-0.3-1.1-0.3-1.7c0-0.6,0.1-1.2,0.3-1.7c0.2-0.5,0.4-0.9,0.8-1.3
		c0.3-0.4,0.8-0.7,1.2-0.8C57.9,3.6,58.4,3.5,59,3.5z M59,10.8c0.7,0,1.4-0.3,1.8-0.8c0.4-0.7,0.6-1.4,0.6-2.2
		c0-0.8-0.2-1.6-0.6-2.3c-0.4-0.6-1.1-0.9-1.8-0.8c-0.4,0-0.7,0.1-1.1,0.2c-0.3,0.1-0.6,0.3-0.8,0.6c-0.2,0.3-0.4,0.6-0.5,1
		c-0.1,0.4-0.2,0.9-0.2,1.3c0,0.8,0.2,1.6,0.6,2.2C57.6,10.5,58.3,10.8,59,10.8z"/>
	<path class="st0" d="M67,11.9c-0.5,0-1.1-0.2-1.5-0.5c-0.4-0.4-0.6-1-0.5-1.6v-5h-1c-0.1,0-0.2,0-0.2-0.1c-0.1-0.1-0.1-0.2-0.1-0.2
		V4L65,3.8l0.3-2.5c0-0.1,0.1-0.1,0.1-0.2c0.1-0.1,0.2-0.1,0.3-0.1h0.7v2.8h2.3v1h-2.3v4.9c0,0.3,0.1,0.6,0.3,0.8
		c0.2,0.2,0.4,0.3,0.6,0.3c0.1,0,0.3,0,0.4-0.1c0.1,0,0.2-0.1,0.3-0.1l0.2-0.1c0,0,0.1-0.1,0.2-0.1c0.1,0,0.2,0.1,0.2,0.1l0.5,0.7
		c-0.3,0.2-0.6,0.4-0.9,0.5C67.8,11.9,67.4,11.9,67,11.9z"/>
	<path class="st0" d="M76.9,3.7v8.1h-0.8c-0.2,0-0.3-0.1-0.4-0.3l-0.1-0.9c-0.3,0.4-0.7,0.7-1.2,0.9c-0.5,0.2-1,0.4-1.5,0.4
		c-0.4,0-0.8-0.1-1.2-0.2c-0.3-0.1-0.6-0.4-0.8-0.6c-0.2-0.3-0.4-0.6-0.5-1c-0.1-0.4-0.2-0.8-0.2-1.3V3.7h1.4v5.2
		c0,0.5,0.1,1,0.4,1.4c0.3,0.4,0.8,0.5,1.3,0.5c0.4,0,0.8-0.1,1.2-0.3c0.4-0.2,0.7-0.5,1-0.8v-6L76.9,3.7L76.9,3.7z"/>
	<path class="st0" d="M80.6-0.1v7H81c0.1,0,0.2,0,0.3,0c0.1,0,0.2-0.1,0.2-0.2L84,4c0.1-0.1,0.1-0.2,0.2-0.2
		c0.1-0.1,0.2-0.1,0.3-0.1h1.3l-3,3.2c-0.1,0.2-0.3,0.3-0.5,0.4c0.1,0.1,0.2,0.1,0.3,0.2c0.1,0.1,0.2,0.2,0.2,0.3l3.2,4h-1.3
		c-0.1,0-0.2,0-0.3-0.1c-0.1,0-0.2-0.1-0.2-0.2l-2.7-3.3c-0.1-0.1-0.1-0.2-0.2-0.2c-0.1,0-0.2,0-0.4,0h-0.4v3.9h-1.4V-0.1
		C79.2-0.1,80.6-0.1,80.6-0.1z"/>
	<path class="st0" d="M89.8,11.9c-0.5,0-1.1-0.2-1.5-0.5c-0.4-0.4-0.6-1-0.5-1.5v-5h-1c-0.1,0-0.2,0-0.2-0.1
		c-0.1-0.1-0.1-0.2-0.1-0.2V4l1.3-0.2l0.3-2.5c0-0.1,0.1-0.1,0.1-0.2C88.3,1,88.4,1,88.5,1h0.7v2.8h2.3v1h-2.3v4.9
		c0,0.3,0.1,0.6,0.3,0.8c0.2,0.2,0.4,0.3,0.6,0.3c0.1,0,0.3,0,0.4-0.1c0.1,0,0.2-0.1,0.3-0.1l0.2-0.1c0,0,0.1-0.1,0.2-0.1
		c0.1,0,0.2,0.1,0.2,0.1l0.4,0.7c-0.3,0.2-0.6,0.4-0.9,0.5C90.5,11.9,90.1,11.9,89.8,11.9z"/>
	<path class="st0" d="M99.7,3.7v8.1h-0.9c-0.2,0-0.3-0.1-0.4-0.3l-0.1-0.9c-0.3,0.4-0.7,0.7-1.2,0.9c-0.5,0.2-1,0.4-1.5,0.4
		c-0.4,0-0.8-0.1-1.2-0.2c-0.3-0.1-0.6-0.4-0.8-0.6c-0.2-0.3-0.4-0.6-0.5-1C93,9.7,93,9.2,93,8.8V3.7h1.4v5.2c0,0.5,0.1,1,0.4,1.4
		c0.3,0.4,0.8,0.5,1.3,0.5c0.4,0,0.8-0.1,1.2-0.3c0.4-0.2,0.7-0.5,1-0.8v-6L99.7,3.7L99.7,3.7z"/>
	<path class="st0" d="M103.4-0.1v7h0.4c0.1,0,0.2,0,0.3,0c0.1,0,0.2-0.1,0.2-0.2l2.6-2.8c0.1-0.1,0.1-0.1,0.2-0.2
		c0.1-0.1,0.2-0.1,0.3-0.1h1.3l-3,3.2c-0.1,0.2-0.3,0.3-0.5,0.4c0.1,0.1,0.2,0.1,0.3,0.2c0.1,0.1,0.2,0.2,0.2,0.3l3.2,4h-1.3
		c-0.1,0-0.2,0-0.3-0.1c-0.1,0-0.2-0.1-0.2-0.2l-2.7-3.3c0-0.1-0.1-0.2-0.2-0.2c-0.1,0-0.2,0-0.4,0h-0.4v3.9h-1.4V-0.1
		C101.9-0.1,103.4-0.1,103.4-0.1z"/>
	<path class="st0" d="M109.8,10.9c0-0.3,0.1-0.5,0.3-0.7c0.3-0.3,0.7-0.4,1.1-0.2c0.1,0.1,0.2,0.1,0.3,0.2c0.1,0.1,0.2,0.2,0.2,0.3
		c0.1,0.3,0.1,0.5,0,0.8c-0.1,0.1-0.1,0.2-0.2,0.3c-0.1,0.1-0.2,0.2-0.3,0.2c-0.2,0.1-0.5,0.1-0.8,0c-0.1,0-0.2-0.1-0.3-0.2
		c-0.1-0.1-0.2-0.2-0.2-0.3C109.8,11.2,109.8,11.1,109.8,10.9z"/>
	<path class="st0" d="M115.7,1.1c0,0.1,0,0.3-0.1,0.4c-0.1,0.1-0.1,0.2-0.2,0.3c-0.1,0.1-0.2,0.2-0.3,0.2c-0.1,0.1-0.3,0.1-0.4,0.1
		c-0.1,0-0.3,0-0.4-0.1c-0.1-0.1-0.2-0.1-0.3-0.2c-0.1-0.1-0.2-0.2-0.2-0.3c-0.1-0.1-0.1-0.3-0.1-0.4c0-0.1,0-0.3,0.1-0.4
		c0.1-0.1,0.1-0.2,0.2-0.3c0.1-0.1,0.2-0.2,0.3-0.2c0.1-0.1,0.3-0.1,0.4-0.1c0.1,0,0.3,0,0.4,0.1c0.1,0.1,0.2,0.1,0.3,0.2
		c0.1,0.1,0.2,0.2,0.2,0.3C115.6,0.9,115.7,1,115.7,1.1z M115.3,3.7v8.1h-1.4V3.7H115.3z"/>
	<path class="st0" d="M119,4.8c0.2-0.2,0.4-0.4,0.6-0.5c0.2-0.1,0.4-0.3,0.7-0.4c0.2-0.1,0.5-0.2,0.7-0.3c0.3-0.1,0.5-0.1,0.8-0.1
		c0.4,0,0.8,0.1,1.2,0.2c0.3,0.1,0.6,0.3,0.8,0.6c0.2,0.3,0.4,0.6,0.5,1c0.1,0.4,0.2,0.8,0.2,1.3v5.2H123V6.6c0-0.5-0.1-1-0.4-1.4
		c-0.3-0.4-0.8-0.5-1.3-0.5c-0.4,0-0.8,0.1-1.2,0.3c-0.4,0.2-0.7,0.5-1,0.8v6h-1.4V3.7h0.9c0.2,0,0.4,0.1,0.4,0.3L119,4.8z"/>
</g>
</svg>
