<?xml version="1.0" encoding="utf-8"?>
<!-- Generator: Adobe Illustrator 19.2.1, SVG Export Plug-In . SVG Version: 6.00 Build 0)  -->
<svg version="1.1" id="Isolation_Mode" xmlns="http://www.w3.org/2000/svg" xmlns:xlink="http://www.w3.org/1999/xlink" x="0px"
	 y="0px" viewBox="0 0 460.047 297.108" enable-background="new 0 0 460.047 297.108" xml:space="preserve">
<g>
	<path fill="#FFDD00" d="M298.198,45.553c0,0-7.333,17.333-10.667,19.333H150.864v86l-89.333-0.667l1.333-73.333
		c0,0,2.667-32,32.667-33.333L298.198,45.553z"/>
	<path fill="#249160" d="M287.531,64.887c0,0,18.667,106.667-10.667,142h-32l-3.333-32h-18.667l-2-28.667l-6-0.667v43.333
		c0,0-4,9.333-11.333,12h-26.667c0,0-13.333-2-16-20l-1.333-18c0,0-0.667-14.667-16.667-12l-81.333-0.667l2.667,66.667l24,0.667
		c0,0,10.667-25.333,41.333-18.667l14.667,18l159.333,2l5.333,6c0,0,27.333-27.333,64-22.667c0,0-8.667-22.667-34.667-23.333
		c0,0-2-47.333-7.333-58.667c0,0-27.333,5.333-29.333-16l-5.333-38.667l4-5.333l-3.333-4L287.531,64.887z"/>
	<path fill="#4E5163" d="M222.198,158.22l36,0.667c0,0,10.667,2.667,13.333,14l-48.667,2L222.198,158.22z"/>
	<path fill="#FFDD00" d="M352.864,136.22c0,0-13.333,0.667-16,13.333c0,0,2.667,14.667,16.667,12.667L352.864,136.22z"/>
	<path fill="#92D5F6" d="M300.198,60.22c0,0-5.333,2.667-2.667,15.333l4,28.667c0,0,2,21.333,29.333,16
		C330.864,120.22,315.531,78.887,300.198,60.22z"/>
	<polygon fill="#FEC24F" points="82.864,150.887 83.531,170.22 64.198,170.887 61.531,150.22 	"/>
	<polygon fill="#F3746A" points="83.531,170.22 83.531,194.887 64.198,195.553 64.198,170.887 	"/>
	<path fill="none" stroke="#000000" stroke-width="3" stroke-miterlimit="10" d="M336.864,178.887
		c7.333-67.333-39.333-122-39.333-122s-5.333-1.333-10,8c0,0,8.667,73.333,4,100.667c0,0,1.333,20.667-14.667,40.667h-33.333
		l-2-32.667l-20,0.667l-1.333-28h-5.333l-0.667,44.667c0,0-2,9.333-14,10.667l-24.667-1.333c0,0-14-0.667-14.667-24l-1.333-14
		c0,0,0-12-12-11.333l-84.667-1.333l1.333,67.333h25.333l215.333,1.333c0,0,18-18.667,21.333-36L336.864,178.887z"/>
	<path fill="none" stroke="#000000" stroke-width="3" stroke-miterlimit="10" d="M300.198,60.887c0,0-4.667,0-3.333,9.333l4,35.333
		c0,0,6,21.333,30,14"/>
	<path fill="none" stroke="#000000" stroke-width="3" stroke-miterlimit="10" d="M336.864,148.887c0,0,4-12,14.667-12.667l2,25.333
		C353.531,161.553,338.864,164.887,336.864,148.887z"/>
	<path fill="none" stroke="#000000" stroke-width="3" stroke-miterlimit="10" d="M336.864,178.887c0,0,22-2.667,35.333,22.667
		l-35.333,0.667l-27.333,22.667c0,0-7.333-3.333,2-12.667"/>
	<path fill="none" stroke="#000000" stroke-width="3" stroke-miterlimit="10" d="M152.198,216.887c0,0-2.667-24-26.667-28.667
		c0,0-24-4-34.667,10c0,0-8.667,9.333-8.667,19.333"/>
	<path fill="none" stroke="#000000" stroke-width="3" stroke-miterlimit="10" d="M221.531,157.553l32.667,0.667
		c0,0,12-2,17.333,14.667l-30,0.667"/>
	
		<line fill="none" stroke="#000000" stroke-width="3" stroke-miterlimit="10" x1="258.198" y1="174.887" x2="256.198" y2="206.887"/>
	<path fill="none" stroke="#000000" stroke-width="3" stroke-miterlimit="10" d="M287.531,64.887H94.864c0,0-5.333,3.333-6,10.667
		c0,0-2.667,4-8.667,4h-18c0,0,2-33.333,32-36.667l203.333,2C297.531,44.887,295.531,54.22,287.531,64.887z"/>
	<line fill="none" stroke="#000000" stroke-width="3" stroke-miterlimit="10" x1="150.864" y1="66.22" x2="150.864" y2="150.22"/>
	<polyline fill="none" stroke="#000000" stroke-width="3" stroke-miterlimit="10" points="82.864,151.553 82.864,194.22 
		63.531,194.22 	"/>
	<line fill="none" stroke="#000000" stroke-width="3" stroke-miterlimit="10" x1="82.864" y1="170.887" x2="64.198" y2="170.22"/>
	<circle fill="#303030" stroke="#000000" stroke-width="8.0881" stroke-miterlimit="10" cx="341.693" cy="225.058" r="25.916"/>
	<circle fill="#E5E5E5" cx="341.693" cy="225.058" r="10.482"/>
	<circle fill="#303030" stroke="#000000" stroke-width="8.0881" stroke-miterlimit="10" cx="116.531" cy="225.22" r="25.916"/>
	<circle fill="#E5E5E5" cx="116.531" cy="225.22" r="10.482"/>
	<line fill="none" stroke="#000000" stroke-width="3" stroke-miterlimit="10" x1="62.198" y1="79.553" x2="62.864" y2="149.553"/>
	<line fill="none" stroke="#000000" stroke-width="3" stroke-miterlimit="10" x1="214.864" y1="146.22" x2="214.864" y2="66.22"/>
</g>
</svg>
